# xmcd
#
# Track frame offsets:
# 150
# 11541
# 25900
# 40436
# 58381
# 71755
# 87998
# 102561
# 119334
# 135574
# 149574
# 166820
#
# Disc length: 2435 seconds
#
#
# Revision: 0
# Processed by: cddbd v1.5.1PL0 Copyright (c) Steve Scherf et al.
# Submitted via: FreeRIP 2.60 
#
DISCID=b009810c
DTITLE=RIAN RICHARD - FESTA DE PE√O
DYEAR=2004
DGENRE=Acoustic
TTITLE0=CERVEJA
TTITLE1=    PAIX√O
TTITLE2=POCAR A MICHIRICA
TTITLE3=MELODIA DA CAN«√O
TTITLE4=PE√O DE VERDADE
TTITLE5=NOS BRA«OS DELA
TTITLE6=FESTA DE PE√O
TTITLE7=SO PRA TER VOC 
TTITLE8=PRECISO DE VOC 
TTITLE9=PINGA E LIM√O
TTITLE10=EU ME ENTREGO
TTITLE11=FESTA DE PE√O-REMIX
EXTD=
EXTT0=
EXTT1=
EXTT2=
EXTT3=
EXTT4=
EXTT5=
EXTT6=
EXTT7=
EXTT8=
EXTT9=
EXTT10=
EXTT11=
PLAYORDER=
